<?xml version="1.0" encoding="UTF-8" standalone="no"?>
<svg
   xmlns:dc="http://purl.org/dc/elements/1.1/"
   xmlns:cc="http://creativecommons.org/ns#"
   xmlns:rdf="http://www.w3.org/1999/02/22-rdf-syntax-ns#"
   xmlns:svg="http://www.w3.org/2000/svg"
   xmlns="http://www.w3.org/2000/svg"
   xmlns:xlink="http://www.w3.org/1999/xlink"
   xmlns:sodipodi="http://sodipodi.sourceforge.net/DTD/sodipodi-0.dtd"
   xmlns:inkscape="http://www.inkscape.org/namespaces/inkscape"
   inkscape:version="1.0 (4035a4fb49, 2020-05-01)"
   height="130.99985"
   width="95"
   sodipodi:docname="Firebase_Logo.svg"
   id="svg28"
   version="1.1"
   viewBox="23 6 95 130.99985">
  <metadata
     id="metadata32">
    <rdf:RDF>
      <cc:Work
         rdf:about="">
        <dc:format>image/svg+xml</dc:format>
        <dc:type
           rdf:resource="http://purl.org/dc/dcmitype/StillImage" />
        <dc:title></dc:title>
      </cc:Work>
    </rdf:RDF>
  </metadata>
  <sodipodi:namedview
     inkscape:current-layer="svg28"
     inkscape:window-maximized="1"
     inkscape:window-y="27"
     inkscape:window-x="0"
     inkscape:cy="65.999971"
     inkscape:cx="136.92221"
     inkscape:zoom="2.8102345"
     fit-margin-bottom="0"
     fit-margin-right="0"
     fit-margin-left="0"
     fit-margin-top="0"
     showgrid="false"
     id="namedview30"
     inkscape:window-height="836"
     inkscape:window-width="1600"
     inkscape:pageshadow="2"
     inkscape:pageopacity="0"
     guidetolerance="10"
     gridtolerance="10"
     objecttolerance="10"
     borderopacity="1"
     bordercolor="#666666"
     pagecolor="#ffffff" />
  <defs
     id="defs12">
    <linearGradient
       gradientUnits="userSpaceOnUse"
       gradientTransform="scale(0.85158188,1.1742852)"
       y2="108.74606"
       y1="24.096534"
       x2="140.66587"
       x1="24.289503"
       id="a">
      <stop
         id="stop2"
         stop-opacity=".1"
         stop-color="#fff"
         offset="0%" />
      <stop
         id="stop4"
         stop-opacity=".08"
         stop-color="#fff"
         offset="14%" />
      <stop
         id="stop6"
         stop-opacity=".02"
         stop-color="#fff"
         offset="61%" />
      <stop
         id="stop8"
         stop-opacity="0"
         stop-color="#fff"
         offset="100%" />
    </linearGradient>
    <path
       d="m 106.687,35.2742 c -0.186,-1.0977 -0.967,-2 -2.0244,-2.338 -1.0574,-0.338 -2.2148,-0.057 -3.0002,0.73 L 86.2473,49.166 74.1273,26.0205 C 73.614,25.0419 72.6023,24.4291 71.5,24.4291 c -1.1023,0 -2.114,0.6128 -2.6273,1.5914 L 62.245,38.6765 45.62,7.5726 C 45.017,6.4429 43.7612,5.8266 42.502,6.0429 41.2428,6.2592 40.2626,7.2589 40.0685,8.5256 L 24,111.701 66.9727,135.8664 c 2.6985,1.5113 5.985,1.5113 8.6836,0 L 119,111.701 106.687,35.274 Z"
       id="b" />
  </defs>
  <path
     id="path14"
     d="M 162.7732,106.51757 H 154 V 38.765371 h 39.8442 v 8.324 h -31.07 v 22.244 h 28.025 v 8.1318 h -28.025 v 29.052499 z m 47.5673,-58.001499 c -2.0914,2.085 -5.3755,2.4125 -7.843,0.7823 -2.4675,-1.6302 -3.4307,-4.764 -2.3,-7.4837 1.1307,-2.7197 4.0395,-4.2678 6.9472,-3.6968 2.9077,0.571 5.0038,3.102 5.0058,6.044 0.0282,1.6386 -0.6298,3.2154 -1.8172,4.3542 h 0.007 z m 0,58.001499 h -8.7732 V 60.151971 h 8.7732 v 46.365799 z m 19.2518,0 h -8.7732 V 60.151971 h 8.386 v 7.57 h 0.3798 c 1.013,-2.6676 2.9584,-4.8847 5.4814,-6.2467 2.4094,-1.5352 5.196,-2.3866 8.0582,-2.4617 2.247,-0.0634 4.4835,0.3238 6.5762,1.1384 l -3.3365,8.1317 a 13.355,13.355 0 0 0 -4.6696,-0.6653 c -3.217,0.0162 -6.2788,1.3736 -8.438,3.7406 -2.4477,2.4937 -3.6716,5.7588 -3.6716,9.795 l 0.007,25.363699 z m 44.149,1.4785 c -7.0553,0 -12.79,-2.3336 -17.2038,-7 -4.4138,-4.666399 -6.6233,-10.553999 -6.6283,-17.660699 -0.1296,-6.3986 2.167,-12.612 6.4347,-17.4093 4.0874,-4.775 10.1338,-7.455 16.444,-7.29 6.9262,0 12.472,2.24 16.6377,6.7198 4.1657,4.4798 6.246,10.4727 6.24,17.9786 l -0.0968,1.6116 h -36.9024 c 0.2532,4.667 1.827,8.3634 4.7217,11.0887 2.707,2.6374 6.358,4.099999 10.15,4.065999 6.2907,0 10.5482,-2.649999 12.7725,-7.946999 l 7.82,3.2157 c -1.5846,3.666 -4.1984,6.801999 -7.5294,9.033599 -3.5,2.3952 -7.7876,3.5928 -12.862,3.5928 z m 12.5863,-30.309199 c -0.1887,-2.6514 -1.4125,-5.1747 -3.6716,-7.57 -2.2591,-2.3953 -5.618,-3.568 -10.0765,-3.5188 -3.0924,-0.0538 -6.0964,1.0253 -8.438,3.031 -2.4532,2.1338 -4.1698,4.978 -4.908,8.1317 l 27.094,-0.074 z m 41.0358,30.309199 c -3.3194,0.0653 -6.6022,-0.6972 -9.5477,-2.2177 -2.5867,-1.295 -4.7755,-3.2558 -6.3378,-5.6774 h -0.3798 v 6.4167 h -8.3933 V 38.765371 h 8.7732 v 21.3866 l -0.3798,6.4315 h 0.3798 c 1.5623,-2.4217 3.751,-4.3825 6.3378,-5.6774 2.941,-1.5382 6.224,-2.3186 9.5477,-2.2695 6.0374,0 11.2507,2.3656 15.6398,7.0968 4.3891,4.7312 6.581,10.5984 6.5762,17.6015 -0.005,7.0031 -2.192,12.8703 -6.5762,17.601499 -4.3842,4.7312 -9.5974,7.0845 -15.6398,7.0598 z m -1.43,-7.947 c 3.9965,0.0315 7.8147,-1.639999 10.486,-4.590699 2.9244,-3.0605 4.3866,-7.114 4.3866,-12.1607 0,-5.0467 -1.4622,-9.1 -4.3866,-12.1607 -2.702,-2.9154 -6.5078,-4.578 -10.4987,-4.5865 -3.9909,-0.0085 -7.8038,1.6382 -10.5182,4.542 -2.8896,3.026 -4.3345,7.0943 -4.3345,12.205 0,5.1107 1.4597,9.1913 4.379,12.242 2.688,2.9397 6.5166,4.594799 10.516,4.546399 l -0.0298,-0.037 z m 45.981,7.947 c -4.965,0 -9.1108,-1.4194 -12.4373,-4.258 -3.3265,-2.8386 -4.9948,-6.591599 -5.0047,-11.258799 0,-5.0466 1.971,-9.004 5.9133,-11.8724 3.9423,-2.8684 8.803,-4.3024 14.5822,-4.3024 5.1487,0 9.37,0.9462 12.6608,2.8387 v -1.3232 c 0.1257,-3.1165 -1.1712,-6.123 -3.53,-8.1835 -2.402,-2.0534 -5.493,-3.1376 -8.6615,-3.0383 -2.4248,-0.03 -4.813,0.5898 -6.9113,1.7964 -1.9657,1.0808 -3.4728,2.8288 -4.245,4.9234 l -8.006,-3.408 c 1.0824,-2.7845 3.2124,-5.367 6.4,-7.7473 3.1876,-2.3803 7.373,-3.5632 12.5863,-3.5484 5.958,0 10.923,1.725 14.895,5.1747 3.972,3.4497 5.943,8.3387 5.9133,14.6667 v 28.061999 h -8.4157 v -6.4315 h -0.3798 c -3.5,5.2733 -8.6168,7.9 -15.3493,7.9 z m 1.43,-7.947 c 3.6866,-0.0128 7.2254,-1.440599 9.8754,-3.984599 2.8243,-2.3633 4.4585,-5.84 4.4685,-9.5068 -2.4825,-2.0206 -6.2063,-3.031 -11.1713,-3.031 -4.26,0 -7.47,0.9142 -9.6296,2.7426 -2.0156,1.538 -3.2095,3.9082 -3.2397,6.4315 -0.041,2.1958 1.0925,4.25 2.98,5.3965 1.984,1.324 4.327,2.017599 6.7177,1.988599 v -0.037 z m 48.5206,7.947 c -5.2133,0 -9.518,-1.2617 -12.914,-3.785 -3.304,-2.4223 -5.8792,-5.693999 -7.4475,-9.462399 l 7.82,-3.2157 c 2.4825,5.8056 6.7028,8.708399 12.6608,8.708399 2.3668,0.0962 4.7064,-0.530799 6.7028,-1.796399 1.6462,-1.0145 2.64,-2.808 2.6215,-4.7312 0,-3.026 -2.13,-5.0762 -6.4,-6.1506 l -9.436,-2.2695 c -3.105,-0.8154 -5.9977,-2.2826 -8.4827,-4.3024 -2.645,-2.0476 -4.1362,-5.2334 -4.0068,-8.5605 0,-4.1 1.827,-7.427 5.4814,-9.98 3.8225,-2.6045 8.3758,-3.9447 13.0108,-3.8293 3.87,-0.0614 7.6858,0.906 11.052,2.8018 3.178,1.791 5.6352,4.6164 6.956,7.9987 l -7.6188,3.09 c -1.713,-4.1 -5.2728,-6.1506 -10.6797,-6.1506 -2.3,-0.076 -4.576,0.482 -6.5762,1.6116 -1.6387,0.8427 -2.667,2.5222 -2.6662,4.3542 0,2.6514 2.0654,4.4503 6.1963,5.3965 l 9.2424,2.1808 c 4.384,0.9857 7.6263,2.7106 9.7265,5.1747 2.0343,2.302 3.1518,5.262 3.1428,8.324 0.0406,4.0824 -1.868,7.942999 -5.1462,10.408599 -3.4308,2.7894 -7.8472,4.1842 -13.249,4.1842 z m 47.1874,0 c -7.0553,0 -12.79,-2.3336 -17.2038,-7 -4.4138,-4.666399 -6.6236,-10.567099 -6.6286,-17.698299 -0.1296,-6.3986 2.167,-12.612 6.4347,-17.4093 4.1028,-4.763 10.1556,-7.4287 16.4665,-7.252 6.95,0 12.497,2.24 16.6377,6.7198 4.1407,4.4798 6.2211,10.4727 6.2411,17.9785 l -0.0968,1.6116 H 453.97 c 0.2532,4.667 1.827,8.3634 4.7217,11.0887 2.7148,2.6374 6.375,4.094999 10.1733,4.050999 6.2907,0 10.5482,-2.649999 12.7725,-7.946999 l 7.82,3.2157 c -1.5842,3.6662 -4.198,6.802199 -7.5294,9.033599 -3.5,2.405 -7.7926,3.6075 -12.8768,3.6075 z m 12.5863,-30.309199 c -0.1887,-2.6514 -1.4125,-5.1747 -3.6716,-7.57 -2.2591,-2.3953 -5.613,-3.568 -10.0616,-3.5188 -3.0923,-0.053 -6.096,1.026 -8.438,3.031 -2.4532,2.1338 -4.1698,4.978 -4.908,8.1317 l 27.0792,-0.074 z"
     opacity="0.54" />
  <path
     id="path16"
     d="M 22.8333,111.71867 38.9655,8.4905713 c 0.1972,-1.266 1.1818,-2.264 2.445,-2.4786 1.2632,-0.2146 2.522,0.4028 3.126,1.5327 L 61.22,38.661971 l 6.65,-12.6615 c 0.515,-0.979 1.5303,-1.592 2.6366,-1.592 1.1063,0 2.1215,0.613 2.6366,1.592 l 45.0227,85.717999 H 22.8333 Z"
     fill="#ffa000" />
  <path
     id="path18"
     d="M 78.566,71.507371 61.2124,38.647171 22.8334,111.71867 Z"
     fill="#f57c00" />
  <path
     id="path20"
     d="m 118.1666,111.71867 -12.356,-76.460299 c -0.1867,-1.098 -0.9703,-2 -2.0315,-2.34 -1.0612,-0.34 -2.2226,-0.057 -3.0107,0.7302 l -77.935,78.068999 43.1234,24.1834 c 2.708,1.512 6.006,1.512 8.714,0 l 43.4958,-24.1834 z"
     fill="#ffca28" />
  <path
     id="path22"
     d="m 105.8105,35.258371 c -0.1867,-1.098 -0.9703,-2 -2.0315,-2.34 -1.0612,-0.34 -2.2226,-0.057 -3.0107,0.7302 L 85.3,49.156171 73.1365,25.999971 c -0.515,-0.979 -1.5303,-1.592 -2.6366,-1.592 -1.1063,0 -2.1215,0.613 -2.6366,1.592 l -6.65,12.6615 L 44.529,7.5446713 c -0.605,-1.1302 -1.8653,-1.7466 -3.13,-1.5304 -1.2647,0.2162 -2.246,1.2167 -2.441,2.4837 L 22.8333,111.71867 h -0.052 l 0.052,0.0596 0.4245,0.2085 77.488,-77.577499 c 0.7877,-0.7915 1.952,-1.076 3.016,-0.737 1.064,0.339 1.849,1.2445 2.0338,2.3457 l 12.2518,75.774999 0.1192,-0.0745 -12.356,-76.460299 z M 22.9748,111.57717 38.9655,9.2279713 c 0.1948,-1.267 1.1784,-2.2675 2.442,-2.4837 1.2636,-0.2162 2.524,0.4 3.13,1.5304 L 61.22,39.391971 l 6.65,-12.6615 c 0.515,-0.979 1.5303,-1.592 2.6366,-1.592 1.1063,0 2.1215,0.613 2.6366,1.592 l 11.9167,22.664 -62.0858,62.182699 z"
     fill-opacity="0.2"
     fill="#ffffff" />
  <path
     id="path24"
     d="m 74.6708,135.17217 c -2.708,1.512 -6.006,1.512 -8.714,0 l -43.0192,-24.1162 -0.1043,0.663 43.1234,24.176 c 2.708,1.512 6.006,1.512 8.714,0 l 43.4958,-24.176 -0.1117,-0.6852 -43.384,24.1387 z"
     opacity="0.2"
     fill="#a52714" />
  <use
     transform="translate(-1,-2.8708544e-5)"
     style="fill:url(#a)"
     height="100%"
     width="100%"
     y="0"
     x="0"
     id="use26"
     xlink:href="#b"
     fill="url(#a)" />
</svg>
